<?xml version="1.0" encoding="UTF-8"?>
<svg enable-background="new 0 0 124.6 124.7" viewBox="0 0 124.6 124.7" xml:space="preserve" xmlns="http://www.w3.org/2000/svg">
<style type="text/css">
	.st0{fill:#FFFFFF;}
</style>
<path class="st0" d="m123.2 48.9c-4.9-23.5-24-42.6-47.5-47.5-40.3-8.4-75.7 22.1-75.7 60.9 0 34.4 27.9 62.3 62.3 62.3 38.8 0.1 69.4-35.4 60.9-75.7zm-45.7 27.4c-17.9 21.3-37.2 28.2-43 23.3-5.8-4-15.5-10.3-5.8-19.6s15-4.3 20.2 0.1c3.6 3 11.4-4.7 18.1-12.7 6.5-7.8 12.7-16.8 9.2-19.8-5.2-4.3-11.6-6.6-4-17.8 7.5-11.4 15.8-4.1 20.8 0.1 5.6 4.9 2.4 25.3-15.5 46.4z"/>
</svg>
