<?xml version="1.0" encoding="UTF-8"?>
<svg enable-background="new 0 0 100.9 125" viewBox="0 0 100.9 125" xml:space="preserve" xmlns="http://www.w3.org/2000/svg">
<style type="text/css">
	.st0{fill:#FFFFFF;}
</style>
<path class="st0" d="m19.9 75.4-19.9 34.5 19-1.2 7.1 16.2 21-36.3c-2-1.3-4-3.5-6-3.9-3.3-0.7-8.3 1.9-11.4 0.5-2.7-1.2-3.3-6.3-5.7-8.1-1-0.8-2.5-1.3-4.1-1.7z"/>
<path class="st0" d="m80.7 74.9c-0.9 0.3-1.7 0.6-2.3 1-2.7 2.1-3.7 7.5-6.7 9.1-2.7 1.3-7.1-1.3-10-0.7-2.6 0.6-5.1 3.4-7.7 4.7l20.8 36 7.1-16.2 19 1.2-20.2-35.1z"/>
<path class="st0" d="m90.5 42.3c0-2.8 3.4-6.2 2.7-9-0.8-3.1-5.7-5.2-7.1-8-1.3-2.5 0.3-7.1-1.5-9.2-2.1-2.4-7.4-2.2-9.9-4.2-2.2-1.7-2.8-6.5-5.4-7.7-2.9-1.3-7.6 1.1-10.8 0.4-2.7-0.6-5.3-4.7-8.2-4.6-3.2 0.1-6.4 4.3-9.5 5-2.8 0.6-6.9-1.9-9.5-0.6-2.9 1.4-3.8 6.6-6.4 8.6-2.2 1.8-7.1 1.2-8.8 3.5-2 2.5-0.6 7.6-1.9 10.4-1.2 2.5-5.8 4.1-6.4 6.9-0.6 3.1 2.8 7.1 2.8 10.3 0 2.8-3.4 6.2-2.7 9 0.8 3.1 5.7 5.2 7.1 8 1.3 2.5-0.3 7.1 1.5 9.2 2.1 2.4 7.4 2.2 9.9 4.2 2.2 1.7 2.8 6.5 5.4 7.7 2.9 1.3 7.6-1.1 10.8-0.4 2.8 0.6 5.4 4.7 8.3 4.6 3.2-0.1 6.4-4.3 9.5-5 2.8-0.6 6.9 1.9 9.5 0.6 2.9-1.4 3.8-6.6 6.4-8.6 2.2-1.8 7.1-1.2 8.8-3.5 2-2.5 0.6-7.6 1.9-10.4 1.2-2.5 5.8-4.1 6.4-6.9 0.6-3.2-2.8-7.1-2.9-10.3zm-15.3 25.4c-6.5 6.5-15.3 10.2-24.5 10.2s-18-3.7-24.5-10.2-10.2-15.3-10.2-24.5 3.7-18 10.2-24.5 15.3-10.2 24.5-10.2 18 3.7 24.5 10.2 10.2 15.3 10.2 24.5-3.7 18-10.2 24.5z"/>
<path class="st0" d="m81 43.2c0 8-3.2 15.8-8.9 21.5s-13.4 8.9-21.5 8.9-15.8-3.2-21.5-8.9-8.9-13.4-8.9-21.5c0-8 3.2-15.8 8.9-21.5s13.4-8.9 21.5-8.9 15.8 3.2 21.5 8.9 8.9 13.4 8.9 21.5z"/>
</svg>
