<?xml version="1.0" encoding="UTF-8"?>
<svg enable-background="new 0 0 125 119.8" viewBox="0 0 125 119.8" xml:space="preserve" xmlns="http://www.w3.org/2000/svg">
<style type="text/css">
	.st0{fill:#FFFFFF;}
</style>
<path class="st0" d="m71.9 31.4v39.4c-4.3-0.1-8.3-0.1-9.6-0.2-5.6-0.7-11.3-4.4-18.9-4.4-3.9 0-7.8 1.1-11 2.7v-52.2l39.5 14.7z"/>
<polygon class="st0" points="98.7 19 61 4.8 48.8 9.3 86.5 23.5"/>
<path class="st0" d="m81.4 25.4-37.7-14.2-8 3c2.1 0.8 35.9 13.4 37.9 14.1l7.8-2.9z"/>
<polygon class="st0" points="111.6 14.1 73.7 0 66.1 2.9 103.8 17.1"/>
<path class="st0" d="m95.9 35.4 6.1 2.6v-16.4c-2.2 0.8-9.7 3.6-13.6 5.1l0.1 15.7 5.4-6.4c0.4-0.7 1.3-0.9 2-0.6z"/>
<path class="st0" d="M105.5,20.2l0.1,20.5c0,1.3-1.3,2.2-2.5,1.7l-7.4-3.2L88,48.3c-1.1,1.2-3.1,0.5-3.2-1.2V28l-9.3,3.5V71  c1.8,0.1,3.6,0.2,5.2,0.3c4.7,0.4,9.5,4.4,9,9.7c7-1.5,15.8-8.9,20.2-12.6c1.8-1.5,3.5-2.5,5.1-3.2V16.7L105.5,20.2z"/>
<path class="st0" d="m13.5 86.5-0.8-1.4c-0.5-0.9-1.5-1.4-2.5-1.4-0.5 0-1 0.1-1.4 0.4l-7.3 4.2c-0.7 0.4-1.1 1-1.3 1.8-0.2 0.7-0.1 1.5 0.3 2.2l15.5 26.1c0.8 1.4 2.6 1.9 4 1.1l7.3-4.2c1.4-0.8 1.9-2.6 1.1-3.9l-14.9-24.9zm8.2 27.6c-0.1 0.1-0.3 0.1-0.4 0.1-0.3 0-0.6-0.2-0.8-0.4l-2.3-4.1c-0.2-0.4-0.1-1 0.3-1.2s1-0.1 1.2 0.3l2.3 4.1c0.3 0.4 0.1 0.9-0.3 1.2z"/>
<path class="st0" d="m111.7 70.5c-6 5-15.8 13.2-23.8 13.6-1.5 2.1-4.3 3.2-7.7 3-19.6-1.7-26.3 3.4-26.4 3.4-0.5 0.4-1.1 0.3-1.5-0.2s-0.3-1.1 0.2-1.5c0.3-0.2 7.3-5.6 27.9-3.9 2.8 0.2 5-0.7 6-2.4 0.6-1.1 0.6-2.4 0.6-2.5 0-3.2-3.4-5.7-6.5-6-6.6-0.6-15.9-0.4-18.5-0.7-8.2-0.9-15.4-7.4-26.8-2.7-7.5 3.1-10.7 10.3-19.3 15.6l12.5 21.2c2.5-1.4 11.3-5.5 23.7-4.1 2.1 0.2 21.2 1.4 26 0.5 7.2-1.3 7.2-2.3 13.9-5.6 9.5-4.7 16.2-11.1 22.9-16.7 2.8-2.4 5.8-4.8 8.4-7.5 5.2-5-2.4-11.3-11.6-3.5z"/>
</svg>
