<?xml version="1.0" encoding="UTF-8"?>
<svg enable-background="new 0 0 118.9 125" viewBox="0 0 118.9 125" xml:space="preserve" xmlns="http://www.w3.org/2000/svg">
<style type="text/css">
	.st0{fill:#FFFFFF;}
</style>
<path class="st0" d="m89.3 88.7c0.4-0.5 0.4-1-0.1-1.4l-18-16.4-4.5 4.6 18.2 16.6c0.4 0.4 0.9 0.3 1.3-0.1l3.1-3.3m27.2 27.9c0.4 0.2 0.6 0.1 0.7-0.2 0.1-0.1 0.1-0.1 0.1-0.2 0.2-0.6 0.4-1.3 0.6-1.9 0.3-0.7 0.5-1.5 0.6-2.3 0.3-2.1 0.5-4.5 0.3-7-0.2-2.1-0.6-4.4-1.2-6.9-0.2-0.8-0.4-1.6-0.8-2.4-1.3-3-3.4-5.2-6.2-6.6-0.2-0.1-0.3-0.2-0.6-0.3-0.2-0.1-0.4-0.1-0.6-0.2-1.4-0.6-2.9-0.9-4.7-1.1-0.2-0.1-0.4-0.1-0.6-0.1-1.5-0.1-3.2-0.2-5-0.2-0.5 0.1-0.9 0.1-1.3 0.1-0.9-0.1-1.7-0.2-2.4-0.5-0.4-0.2-0.9-0.5-1.4-0.9l-19.7-18.1-2.2 2.2 17.9 16.4c1 0.9 1 1.8 0.2 2.8l-3.2 3.5c-0.8 0.9-1.7 0.9-2.7 0.1l-18.3-16.7-2.1 2.2 18.9 17.1c0.3 0.3 0.5 0.7 0.6 1.1s0.1 0.9 0.1 1.4l-0.1 0.8c-0.1 0.3-0.3 0.5-0.4 0.8-0.3 0.5-0.5 1-0.6 1.4-0.5 1.1-0.7 2.2-0.7 3.3v0.8c0.1 6 2.2 10.7 6.1 14.1l0.9 0.9c0.7 0.6 1.4 1 2.2 1.6 0.3 0.2 0.5 0.3 0.8 0.6 0.3 0.2 0.6 0.3 0.9 0.5 1 0.6 1.8 1 2.7 1.4 1.2 0.5 2.3 0.8 3.4 0.9 0.5 0 0.6-0.2 0.5-0.6l-6.2-10.7c-0.6-1.1-0.9-2.3-1.1-3.5-0.2-1.3-0.1-2.5 0.3-3.7 0.6-2.4 2.3-4.3 5.2-5.8 2.2-1.1 4-1.7 5.6-1.6 0.9 0.1 1.7 0.1 2.3 0.2 1.9 0.4 3.2 1.1 4.1 2.1l7.1 15.2m-112-3.6c0.1 0.4 0.2 0.8 0.6 1.2l9.1 9.2c0.3 0.3 0.7 0.6 1.2 0.6s1-0.2 1.3-0.6l0.4-0.4-11.5-11.6c-0.2 0.1-0.3 0.1-0.4 0.2l-0.1 0.1c-0.4 0.2-0.6 0.7-0.6 1.3m90.7-68.2-11.5-11.5-67.3 67.3c-0.2 0.1-0.3 0.1-0.4 0.2l-0.1 0.1c-0.1 0.1-0.2 0.3-0.3 0.5l-9.5 9.4 11.6 11.5 9.4-9.4c0.1-0.1 0.3-0.2 0.4-0.3l0.4-0.4 67.3-67.4m6.8 2.1 0.9 0.9c6.1 3.8 9.2 10.4 9.4 19.8 7.2-6.9 8.2-17.6 2.9-32.1l-1-0.9-12.2 12.3m-1-30-1.1 1.2 10.9 11 1.2-1.2c0.3-0.3 0.6-0.8 0.6-1.2-0.1-0.5-0.2-1-0.6-1.3l-8.3-8.3c-0.3-0.3-0.8-0.6-1.3-0.6-0.7-0.1-1.1 0-1.4 0.4m-71.6 24.6c0.1 0.2 0.2 0.4 0.4 0.7l22 20 4.6-4.6-22.1-20.3c-0.3-0.3-0.5-0.3-0.7-0.3-0.1 0.1-0.3 0.1-0.6 0.4l-3.1 3.4c-0.3 0.2-0.4 0.4-0.5 0.7m7.9-19.8c-0.6-4.8-2.6-8.7-5.9-11.7-4.1-3.6-7.6-5.5-10.8-5.9-0.3 0-0.5 0.1-0.5 0.2-0.1 0.1 0 0.2 0.1 0.3l6.2 10.7c0.4 1 0.8 1.9 1 2.9 0.1 0.2 0.1 0.4 0.2 0.6 0.1 0.9 0.1 1.7-0.1 2.5-0.1 0.2-0.1 0.3-0.1 0.6-0.1 0.3-0.1 0.6-0.1 0.8-0.3 0.9-0.7 1.7-1.3 2.4-1 1.2-2.2 2.2-3.8 3.1-2.3 1.3-4.2 1.8-5.9 1.8-2.9-0.2-5.1-1-6.4-2.4l-7.3-15.1c-0.1-0.1-0.2-0.1-0.3-0.1-0.2 0-0.3 0.1-0.4 0.3-2.1 5-2.2 11.1-0.3 18.3 1.5 5.8 5.5 9.4 12 10.6 1.5 0.3 3.3 0.4 5.2 0.4 0.3 0 0.7 0 1.1 0.1 0.2-0.1 0.5-0.1 0.7-0.1h0.1l0.1-0.1c0.1 0 0.3 0 0.6-0.1 0.7 0 1.4 0.1 2.1 0.1 0.3 0.1 0.8 0.3 1.1 0.6 0.3 0.2 0.5 0.3 0.7 0.6l23.9 21.9 2.2-2.2-22.2-19.9c-1-0.9-1-1.8-0.1-2.7l3.1-3.4c0.9-1 1.8-1 2.7-0.1l22.3 20.2 2.2-2.2-23.2-21.2c-0.2-0.2-0.3-0.4-0.4-0.6-0.4-0.8-0.4-1.7-0.1-2.7 0-0.1 0-0.3 0.1-0.3 0.1-0.1 0.2-0.3 0.2-0.3 0.2-0.3 0.4-0.7 0.6-1 0.6-1.2 0.9-2.4 0.9-3.6-0.1-1.2-0.2-2.3-0.2-3.3m46.2-17.8-3.9-3.9-13.6 13.6 3.9 3.9 13.6-13.6m3.5 3.5-2.7-2.7-13.6 13.6 2.6 2.6c2.7 0 5 0.9 6.7 2.7s2.7 4.1 2.7 6.7l17.1 17.1 13.6-13.6-17.3-17.3c-2.5-0.1-4.6-1-6.3-2.7-0.7-0.7-1.3-1.5-1.7-2.4-0.6-1.2-1-2.5-1.1-4z"/>
</svg>
