<?xml version="1.0" encoding="UTF-8"?>
<svg enable-background="new 0 0 124.7 124.7" viewBox="0 0 124.7 124.7" xml:space="preserve" xmlns="http://www.w3.org/2000/svg">
<style type="text/css">
	.st0{fill:#FFFFFF;}
</style>
<path class="st0" d="M62.3,0C28,0,0,28,0,62.3c0,34.4,28,62.3,62.3,62.3s62.3-28,62.3-62.3C124.7,28,96.7,0,62.3,0z M62.3,111.6  c-27.1,0-49.2-22.1-49.2-49.2s22.1-49.2,49.2-49.2s49.2,22.1,49.2,49.2S89.5,111.6,62.3,111.6z"/>
<path class="st0" d="m62.3 106.5c24.4 0 44.2-19.8 44.2-44.2s-19.8-44.2-44.2-44.2-44.2 19.8-44.2 44.2c0.1 24.4 19.8 44.2 44.2 44.2zm-3.5-40.3c-10.2-2.9-17.1-6.9-17.1-14.7 0-7.1 5.9-12.6 16.1-14.3v-7.6h9.3v7.1c6.4 0.2 10.7 1.4 13.8 2.6l-2.8 9.1c-2.5-0.9-6.8-2.7-13.7-2.7-6.2 0-8.2 2.2-8.2 4.5 0 2.6 3.3 4.3 11.4 6.9 11.3 3.4 15.9 7.8 15.9 15 0 7.1-6 13.2-16.9 14.9v8.2h-9.3v-7.6c-6.4-0.2-12.6-1.7-16.2-3.4l2.9-9.4c4 1.8 9.6 3.5 15.8 3.5 5.4 0 9.1-1.8 9.1-5s-3.1-5.1-10.1-7.1z"/>
</svg>
