<?xml version="1.0" encoding="UTF-8"?>
<svg enable-background="new 0 0 125 61.4" viewBox="0 0 125 61.4" xml:space="preserve" xmlns="http://www.w3.org/2000/svg">
<style type="text/css">
	.st0{fill-rule:evenodd;clip-rule:evenodd;fill:#FFFFFF;}
</style>
<path class="st0" d="m18.7 0h65.9v6.6h14c1.3 0 2.1 0.5 2.5 1.3l10.7 18 11.8 5.2c0.7 0.7 1.4 1.5 1.4 2.4v17.1c0 1.5-1.3 2.8-2.8 2.8h-9.2v-0.9c0-6-4.9-10.9-10.9-10.9s-10.9 4.9-10.9 10.9v0.9h-34.8v-0.9c0-6-4.9-10.9-10.9-10.9s-10.9 4.9-10.9 10.9v0.9h-15.9v-17.6h20.9c0.9 0 1.7-0.8 1.7-1.7s-0.8-1.7-1.7-1.7h-37.9c-0.9 0-1.7-0.8-1.7-1.7 0-1 0.8-1.7 1.7-1.7h47c0.9 0 1.7-0.8 1.7-1.7s-0.8-1.7-1.7-1.7h-41c-0.9 0-1.7-0.8-1.7-1.7s0.8-1.7 1.7-1.7h34.9c0.9 0 1.7-0.8 1.7-1.7s-0.8-1.7-1.7-1.7h-37.9c-0.9 0-1.7-0.8-1.7-1.7s0.8-1.7 1.7-1.7h41c0.9 0 1.7-0.8 1.7-1.7s-0.8-1.7-1.7-1.7h-34.9c-1 0-1.8-0.8-1.8-1.7s0.8-1.7 1.7-1.7h7.9l0.1-8.6zm70.9 10.5h5.8c2.4 0 2.8 0.6 3.4 1.2l6.7 11.5c0.9 1.6-0.1 4-2.1 4h-13.9c-1.4 0-2.5-1.1-2.5-2.5v-11.7c0-1.4 1.2-2.5 2.6-2.5z"/>
<path class="st0" d="m45.6 43.9c4.8 0 8.7 3.9 8.7 8.7s-3.9 8.7-8.7 8.7-8.7-3.9-8.7-8.7 3.9-8.7 8.7-8.7z"/>
<path class="st0" d="m102.1 43.9c4.8 0 8.7 3.9 8.7 8.7s-3.9 8.7-8.7 8.7-8.7-3.9-8.7-8.7 3.9-8.7 8.7-8.7z"/>
</svg>
