<?xml version="1.0" encoding="utf-8"?>
<!-- Generator: Adobe Illustrator 26.5.2, SVG Export Plug-In . SVG Version: 6.00 Build 0)  -->
<svg version="1.1" id="Layer_1" xmlns="http://www.w3.org/2000/svg" xmlns:xlink="http://www.w3.org/1999/xlink" x="0px" y="0px"
	 viewBox="0 0 124.7 124.7" style="enable-background:new 0 0 124.7 124.7;" xml:space="preserve">
<style type="text/css">
	.st0{fill:#FFFFFF;}
</style>
<path class="st0" d="M71.7,62.3c0,5.2-4.2,9.4-9.4,9.4s-9.4-4.2-9.4-9.4s4.2-9.4,9.4-9.4S71.7,57.2,71.7,62.3z"/>
<path class="st0" d="M62.3,0C27.9,0,0,27.9,0,62.3s27.9,62.3,62.3,62.3s62.3-27.9,62.3-62.3C124.7,27.9,96.8,0,62.3,0z M107.5,62.3
	c0,24.9-20.3,45.2-45.2,45.2S17.1,87.2,17.1,62.3s20.3-45.2,45.2-45.2C87.3,17.1,107.5,37.4,107.5,62.3z M62.5,5.5L62.5,5.5
	L62.5,5.5z"/>
<path class="st0" d="M62.3,35.7c8.4,0,15.4-6.1,16.9-14.1c-5.2-2.2-10.9-3.4-16.9-3.4s-11.7,1.2-16.9,3.4
	C46.9,29.6,53.9,35.7,62.3,35.7z"/>
<path class="st0" d="M84.7,49.1c4.3,7.5,13.5,10.5,21.4,7.3c-1.6-12-8-22.4-17.2-29.3C82.3,32.3,80.4,41.6,84.7,49.1z"/>
<path class="st0" d="M88.9,97.5c9.2-7,15.6-17.5,17.2-29.5c-7.9-3.5-17.4-0.5-21.8,7.1C79.8,82.8,82,92.4,88.9,97.5z"/>
<path class="st0" d="M44.4,102.7c5.5,2.4,11.5,3.8,17.9,3.8c5.7,0,11.2-1.1,16.3-3.1v-0.1c-0.9-8.7-8.2-15.5-17.1-15.5
	C52.8,87.8,45.6,94.3,44.4,102.7z"/>
<path class="st0" d="M34.7,96.7c6.8-5.2,8.8-14.7,4.5-22.3c-4.2-7.3-13-10.3-20.7-7.6C19.7,78.8,25.7,89.5,34.7,96.7z"/>
<path class="st0" d="M39.6,48.3c4.2-7.2,2.5-16.1-3.5-21.5c-9.2,6.8-15.7,17.1-17.4,29C26.4,58.7,35.3,55.7,39.6,48.3z"/>
</svg>
