<?xml version="1.0" encoding="UTF-8"?>
<svg width="50px" height="50px" viewBox="0 0 50 50" version="1.1" xmlns="http://www.w3.org/2000/svg" xmlns:xlink="http://www.w3.org/1999/xlink">
    <!-- Generator: Sketch 55.2 (78181) - https://sketchapp.com -->
    <title>instagram</title>
    <desc>Created with Sketch.</desc>
    <defs>
        <radialGradient cx="50.003274%" cy="100.121223%" fx="50.003274%" fy="100.121223%" r="117.729129%" gradientTransform="translate(0.500033,1.001212),rotate(88.452943),scale(1.000000,1.296841),translate(-0.500033,-1.001212)" id="radialGradient-1">
            <stop stop-color="#FFC838" offset="0.0343116554%"></stop>
            <stop stop-color="#FB3958" offset="46.0251267%"></stop>
            <stop stop-color="#458EFF" offset="100%"></stop>
        </radialGradient>
    </defs>
    <g id="instagram" stroke="none" stroke-width="1" fill="none" fill-rule="evenodd">
        <path d="M25,12.2093023 C17.9200316,12.2093023 12.2093023,17.9200316 12.2093023,25 C12.2093023,32.0799684 17.9200316,37.7906977 25,37.7906977 C32.0799684,37.7906977 37.7906977,32.0799684 37.7906977,25 C37.7906977,17.9200316 32.0799684,12.2093023 25,12.2093023 Z M25.1453488,33.4302326 C20.5869992,33.4302326 16.8604651,29.7147894 16.8604651,25.1453488 C16.8604651,20.5759083 20.5759083,16.8604651 25.1453488,16.8604651 C29.7147894,16.8604651 33.4302326,20.5759083 33.4302326,25.1453488 C33.4302326,29.7147894 29.7036985,33.4302326 25.1453488,33.4302326 L25.1453488,33.4302326 Z M41.2790698,11.7732558 C41.2790698,13.4702577 39.9123568,14.8255814 38.2267442,14.8255814 C36.5297423,14.8255814 35.1744186,13.4588684 35.1744186,11.7732558 C35.1744186,10.0876432 36.5411316,8.72093023 38.2267442,8.72093023 C39.9123568,8.72093023 41.2790698,10.0876432 41.2790698,11.7732558 Z M49.8243168,14.6909517 C49.6346905,10.6855963 48.7200223,7.13767712 45.7863915,4.2145487 C42.8639152,1.29142028 39.3167875,0.376548031 35.3123257,0.175722414 C31.1851645,-0.0585741381 18.8148355,-0.0585741381 14.6876743,0.175722414 C10.694367,0.365391052 7.14723926,1.2802633 4.21360848,4.20339172 C1.27997769,7.12652014 0.376464027,10.6744394 0.175683212,14.6797947 C-0.0585610708,18.8078768 -0.0585610708,31.1809662 0.175683212,35.3090483 C0.365309537,39.3144037 1.27997769,42.8623229 4.21360848,45.7854513 C7.14723926,48.7085797 10.6832125,49.623452 14.6876743,49.8242776 C18.8148355,50.0585741 31.1851645,50.0585741 35.3123257,49.8242776 C39.3167875,49.6346089 42.8639152,48.7197367 45.7863915,45.7854513 C48.7088678,42.8623229 49.623536,39.3144037 49.8243168,35.3090483 C50.0585611,31.1809662 50.0585611,18.8190338 49.8243168,14.6909517 Z M44.6069396,39.861297 C43.7380191,42.0447382 42.0558782,43.7268791 39.861297,44.6069396 C36.5749952,45.9103204 28.7769909,45.6095402 25.1453488,45.6095402 C21.5137068,45.6095402 13.7045625,45.8991803 10.4294007,44.6069396 C8.24595947,43.7380191 6.56381853,42.0558782 5.68375804,39.861297 C4.38037732,36.5749952 4.68115749,28.7769909 4.68115749,25.1453488 C4.68115749,21.5137068 4.39151733,13.7045625 5.68375804,10.4294007 C6.55267853,8.24595947 8.23481946,6.56381853 10.4294007,5.68375804 C13.7157025,4.38037732 21.5137068,4.68115749 25.1453488,4.68115749 C28.7769909,4.68115749 36.5861352,4.39151733 39.861297,5.68375804 C42.0447382,6.55267853 43.7268791,8.23481946 44.6069396,10.4294007 C45.9103204,13.7157025 45.6095402,21.5137068 45.6095402,25.1453488 C45.6095402,28.7769909 45.9103204,36.5861352 44.6069396,39.861297 Z" id="Shape" fill="url(#radialGradient-1)" fill-rule="nonzero"></path>
    </g>
</svg>