<svg id="RWD_Icon_Set" data-name="RWD Icon Set" xmlns="http://www.w3.org/2000/svg" viewBox="0 0 30 30">
  <defs>
    <style>
      .cls-1 {
        fill: #bd2026;
      }

      .cls-2 {
        fill: #fff;
      }
    </style>
  </defs>
  <circle id="pinterest-circle" class="cls-1" cx="15" cy="15" r="15"/>
  <path id="pinterest-p" class="cls-2" d="M13.4,21.8a4,4,0,0,0,3.4,1.7c4.5,0,7.8-4.2,7.8-9.3s-4-8.7-9.2-8.7S5.4,9.9,5.4,14.6c0,2.2,1.2,4.9,3,5.8,0.3,0.1.4,0.1,0.5-.2l0.4-1.7a0.5,0.5,0,0,0-.1-0.4,5.8,5.8,0,0,1-1.1-3.4,6.5,6.5,0,0,1,6.8-6.5,5.9,5.9,0,0,1,6.3,6.1c0,4.1-2,6.9-4.7,6.9a2.2,2.2,0,0,1-2.2-2.7c0.4-1.8,1.2-3.7,1.2-5a1.9,1.9,0,0,0-1.9-2.1c-1.5,0-2.7,1.6-2.7,3.6a5.4,5.4,0,0,0,.5,2.2L9.6,24.7A14.5,14.5,0,0,0,9.5,29l1,0.4a16.6,16.6,0,0,0,1.9-3.9Z"/>
</svg>
